<svg width="48" height="48" viewBox="0 0 48 48" fill="none" xmlns="http://www.w3.org/2000/svg">
<path opacity="0.35" d="M34 8.998C34 11.76 36.238 14 38.998 14C41.764 14 44 11.76 44 8.998C44 6.24 41.764 4 38.998 4C36.238 4 34 6.24 34 8.998Z" fill="#50D7D0"/>
<path d="M25.478 34.0001H14C12.896 34.0001 12 33.1061 12 32.0001C12 30.8941 12.896 30.0001 14 30.0001H25.046L22.142 22.7421C21.732 21.7161 22.23 20.5521 23.256 20.1421C24.286 19.7321 25.446 20.2321 25.856 21.2581L28.92 28.9161C29.378 30.0601 29.238 31.3541 28.546 32.3741C27.858 33.3921 26.71 34.0001 25.478 34.0001ZM25.206 30.4001H25.226H25.206ZM42 24.0341H36C35.252 24.0341 34.568 23.6181 34.224 22.9541L30.138 15.0601L29.424 14.0901L23.62 10.1581L16.486 11.9401C15.416 12.2081 14.33 11.5581 14.06 10.4841C13.792 9.41412 14.444 8.32812 15.514 8.06012L23.514 6.06012C24.064 5.91612 24.648 6.02212 25.12 6.34412L31.95 10.9681C32.14 11.0961 32.304 11.2561 32.44 11.4381L33.452 12.8141C33.514 12.8981 33.57 12.9881 33.618 13.0801L37.218 20.0341H42C43.104 20.0341 44 20.9281 44 22.0341C44 23.1401 43.104 24.0341 42 24.0341Z" fill="#50D7D0"/>
<path d="M30.584 10.856L33.718 15.274L35.902 19.898L34.34 23.16L31.574 19.392L27.676 23.564L29.13 29.624L26.372 32.986L14 30L22.858 28.882L19.088 24.134L19.498 17.432L24.566 12.394L22.262 10L21.534 8L30.584 10.856Z" fill="#50D7D0"/>
<path d="M23 26C25.7614 26 28 23.7614 28 21C28 18.2386 25.7614 16 23 16C20.2386 16 18 18.2386 18 21C18 23.7614 20.2386 26 23 26Z" fill="#50D7D0"/>
<path d="M29 20C31.7614 20 34 17.7614 34 15C34 12.2386 31.7614 10 29 10C26.2386 10 24 12.2386 24 15C24 17.7614 26.2386 20 29 20Z" fill="#50D7D0"/>
<path d="M19.9979 44.0001C19.6479 44.0001 19.2919 43.9081 18.9699 43.7141C18.0219 43.1461 17.7159 41.9181 18.2839 40.9701L24.2839 30.9701C24.8519 30.0221 26.0799 29.7141 27.0279 30.2841C27.9759 30.8521 28.2819 32.0801 27.7139 33.0281L21.7139 43.0281C21.3399 43.6541 20.6779 44.0001 19.9979 44.0001Z" fill="#50D7D0"/>
<path d="M18.252 41.0481L22.19 31.4441L25.778 33.4641L19.416 41.7581L18.252 41.0481Z" fill="#50D7D0"/>
<path opacity="0.35" d="M12 18H2C0.896 18 0 17.106 0 16C0 14.894 0.896 14 2 14H12C13.104 14 14 14.894 14 16C14 17.106 13.104 18 12 18Z" fill="#50D7D0"/>
<path opacity="0.35" d="M12 26H4C2.896 26 2 25.106 2 24C2 22.894 2.896 22 4 22H12C13.104 22 14 22.894 14 24C14 25.106 13.104 26 12 26Z" fill="#50D7D0"/>
</svg>
