<svg width="40" height="40" viewBox="0 0 40 40" fill="none" xmlns="http://www.w3.org/2000/svg">
<path opacity="0.35" d="M6.6665 28.3333C9.42793 28.3333 11.6665 26.0947 11.6665 23.3333C11.6665 20.5718 9.42793 18.3333 6.6665 18.3333C3.90508 18.3333 1.6665 20.5718 1.6665 23.3333C1.6665 26.0947 3.90508 28.3333 6.6665 28.3333Z" fill="#E23F30"/>
<path opacity="0.35" d="M20 28.3334C22.7614 28.3334 25 26.0948 25 23.3334C25 20.5719 22.7614 18.3334 20 18.3334C17.2386 18.3334 15 20.5719 15 23.3334C15 26.0948 17.2386 28.3334 20 28.3334Z" fill="#E23F30"/>
<path opacity="0.35" d="M33.3335 28.3333C36.0949 28.3333 38.3335 26.0947 38.3335 23.3333C38.3335 20.5718 36.0949 18.3333 33.3335 18.3333C30.5721 18.3333 28.3335 20.5718 28.3335 23.3333C28.3335 26.0947 30.5721 28.3333 33.3335 28.3333Z" fill="#E23F30"/>
<path d="M18.3332 1.66675H9.99984C8.15817 1.66675 6.6665 3.15841 6.6665 5.00008V13.3334C6.6665 14.7067 8.23484 15.4901 9.33317 14.6667L12.4448 12.3334C13.0215 11.9001 13.7232 11.6667 14.4448 11.6667H18.3332C20.1748 11.6667 21.6665 10.1751 21.6665 8.33341V5.00008C21.6665 3.15841 20.1748 1.66675 18.3332 1.66675Z" fill="#E23F30"/>
<path opacity="0.35" d="M18.3335 6.66659V9.99992C18.3335 11.8416 19.8252 13.3333 21.6668 13.3333H25.5552C26.2768 13.3333 26.9785 13.5666 27.5552 13.9999L30.6668 16.3333C31.7652 17.1566 33.3335 16.3733 33.3335 14.9999V6.66659C33.3335 4.82492 31.8418 3.33325 30.0002 3.33325H21.6668C19.8252 3.33325 18.3335 4.82492 18.3335 6.66659Z" fill="#E23F30"/>
<path d="M36.6667 38.3333H3.33333C1.49167 38.3333 0 36.8416 0 35C0 33.1583 1.49167 31.6666 3.33333 31.6666H36.6667C38.5083 31.6666 40 33.1583 40 35C40 36.8416 38.5083 38.3333 36.6667 38.3333Z" fill="#E23F30"/>
</svg>
