<svg width="40" height="40" viewBox="0 0 40 40" fill="none" xmlns="http://www.w3.org/2000/svg">
<path opacity="0.35" d="M27.6202 5.43823L5.75825 27.2699C5.31912 27.7091 5.02578 28.2726 4.92089 28.8842L4.02664 34.0719C3.83286 35.1937 4.80889 36.1698 5.93247 35.9742L11.0597 35.0817C11.6677 34.975 12.2295 34.6853 12.6669 34.2497L34.5626 12.3806L27.6202 5.43823Z" fill="#E23F30"/>
<path d="M24.4755 8.57617L5.75856 27.27C5.31944 27.7091 5.0261 28.2727 4.92121 28.8843L4.57275 30.9039L9.09377 35.4249L11.0583 35.0836C11.6663 34.9769 12.2281 34.6871 12.6654 34.2516L31.4215 15.5186L24.4755 8.57617Z" fill="#E23F30"/>
<path d="M34.3028 12.6401L34.5641 12.3805C36.4806 10.464 36.4806 7.3546 34.5641 5.43811C32.6476 3.52161 29.5382 3.52161 27.6217 5.43811L27.3604 5.69767L34.3028 12.6401Z" fill="#E23F30"/>
<path opacity="0.35" d="M34.9591 27.4176L12.5834 5.04185C11.1949 3.65337 8.94418 3.65337 7.5557 5.04185L5.04185 7.5557C3.65337 8.94418 3.65337 11.1949 5.04185 12.5834L27.4176 34.9591C28.8061 36.3476 31.0568 36.3476 32.4453 34.9591L34.9591 32.4453C36.3476 31.0568 36.3476 28.8061 34.9591 27.4176Z" fill="#E23F30"/>
</svg>
