<svg width="32" height="32" viewBox="0 0 32 32" fill="none" xmlns="http://www.w3.org/2000/svg">
<path opacity="0.35" d="M16.0001 29.3334C23.3639 29.3334 29.3334 23.3638 29.3334 16C29.3334 8.63622 23.3639 2.66669 16.0001 2.66669C8.63628 2.66669 2.66675 8.63622 2.66675 16C2.66675 23.3638 8.63628 29.3334 16.0001 29.3334Z" fill="#43BFBA"/>
<path d="M16.0016 19.5727C14.0323 19.5727 12.4297 17.9701 12.4297 16.0008C12.4297 14.0315 14.0323 12.429 16.0016 12.429C17.9709 12.429 19.5734 14.0315 19.5734 16.0008C19.5734 17.9701 17.9709 19.5727 16.0016 19.5727ZM16.0016 14.8102C15.3455 14.8102 14.8109 15.3448 14.8109 16.0008C14.8109 16.6569 15.3455 17.1915 16.0016 17.1915C16.6576 17.1915 17.1922 16.6569 17.1922 16.0008C17.1922 15.3448 16.6576 14.8102 16.0016 14.8102Z" fill="#43BFBA"/>
<path d="M18.3829 24.3353H16.3076C13.5739 24.3353 10.9641 23.0446 9.32578 20.8825C7.76963 18.8298 7.28267 16.2128 7.98752 13.7042C8.79476 10.8312 11.2082 8.54523 14.1347 7.87848C16.5505 7.32841 18.9579 7.85109 20.9153 9.35009C22.9489 10.9062 24.2241 13.3744 24.3276 15.9533C24.3538 16.9189 24.0026 17.8166 23.3382 18.5C22.6763 19.1811 21.7511 19.5728 20.801 19.5728C18.7948 19.5728 17.1922 17.9702 17.1922 16.0009C17.1922 15.3437 17.7256 14.8103 18.3829 14.8103C19.0401 14.8103 19.5735 15.3437 19.5735 16.0009C19.5735 16.6569 20.1081 17.1915 20.7641 17.1915C21.1153 17.1915 21.4118 17.0665 21.6321 16.8391C21.844 16.62 21.9571 16.3367 21.9488 16.0378C21.8738 14.1697 20.9463 12.3719 19.4687 11.2408C18.0828 10.1788 16.3767 9.81086 14.6645 10.199C12.5762 10.6741 10.8557 12.3028 10.2807 14.3471C9.77107 16.1581 10.1068 17.969 11.2236 19.4442C12.4143 21.0146 14.3145 21.9528 16.3076 21.9528H18.3829C19.0401 21.9528 19.5735 22.4862 19.5735 23.1435C19.5735 23.8007 19.0401 24.3353 18.3829 24.3353Z" fill="#43BFBA"/>
</svg>
