<svg width="32" height="32" viewBox="0 0 32 32" fill="none" xmlns="http://www.w3.org/2000/svg">
<path opacity="0.35" d="M16.0001 29.3334C23.3639 29.3334 29.3334 23.3638 29.3334 16C29.3334 8.63622 23.3639 2.66669 16.0001 2.66669C8.63628 2.66669 2.66675 8.63622 2.66675 16C2.66675 23.3638 8.63628 29.3334 16.0001 29.3334Z" fill="#43BFBA"/>
<path d="M14.0067 13.6959V16.0279H10.708V19.5332H14.0067V29.1679C14.6587 29.2666 15.3213 29.3332 16 29.3332C16.6133 29.3332 17.2133 29.2772 17.8053 29.1972V19.5332H21.256L21.7973 16.0279H17.804V14.1119C17.804 12.6559 18.28 11.3639 19.6427 11.3639H21.832V8.30523C21.4467 8.25323 20.6347 8.13989 19.0973 8.13989C15.888 8.13989 14.0067 9.83456 14.0067 13.6959Z" fill="#43BFBA"/>
</svg>
