<svg width="119" height="47" viewBox="0 0 119 47" fill="none" xmlns="http://www.w3.org/2000/svg">
<path d="M38.0586 0.90918L44.3674 12.2125L50.6763 0.90918H38.0586Z" fill="#0A2E3A"/>
<path d="M19.2637 12.2125L25.4411 0.90918L31.7499 12.2125H19.2637Z" fill="#495560"/>
<path d="M38.0591 0.90918H25.4414L31.7502 12.2125H44.3679L38.0591 0.90918Z" fill="#43BFBA"/>
<path d="M19.2637 12.2124L25.4411 23.5157L31.7499 12.2124H19.2637Z" fill="#E23F30"/>
<path d="M25.4414 23.5157L31.7502 12.2124L38.0591 23.5157H25.4414Z" fill="#F05E2D"/>
<path d="M25.4414 23.5156L31.7502 34.819L38.0591 23.5156H25.4414Z" fill="#E16626"/>
<path d="M12.9556 23.5156H0.337891L6.64673 34.819H19.2644L12.9556 23.5156Z" fill="#FBB564"/>
<path d="M25.4413 23.5156H12.9551L19.2639 34.819H31.7502L25.4413 23.5156Z" fill="#F9A63F"/>
<path d="M6.64648 34.8193L12.9553 46.1227L19.2642 34.8193H6.64648Z" fill="#495560"/>
<path d="M0.337891 46.1227L6.64673 34.8193L12.9556 46.1227H0.337891Z" fill="#43BFBA"/>
<path d="M12.9551 23.5157L19.2639 12.2124L25.4413 23.5157H12.9551Z" fill="#0A2E3A"/>
<path fill-rule="evenodd" clip-rule="evenodd" d="M59.4798 2.97562V6.17752H65.0717V8.43048H59.4798V12.8507H56.6777V0.722656H65.8165V2.97562H59.4798Z" fill="#122645"/>
<path fill-rule="evenodd" clip-rule="evenodd" d="M74.7931 3.55722C74.3536 3.18989 73.7126 3.00623 72.8763 3.00623H70.587V7.23665H72.8763C73.7126 7.23665 74.3536 7.05299 74.7931 6.67954C75.2266 6.3122 75.4464 5.79182 75.4464 5.1245C75.4464 4.43882 75.2266 3.91843 74.7931 3.55722ZM75.5013 12.8507L73.1693 9.47737H73.0289H70.587V12.8507H67.791V0.722656H73.0289C74.1033 0.722656 75.0312 0.900199 75.8187 1.26141C76.6062 1.62262 77.2167 2.12463 77.6441 2.78583C78.0653 3.4409 78.2789 4.21842 78.2789 5.1245C78.2789 6.02446 78.0653 6.79586 77.6318 7.45093C77.1984 8.106 76.5879 8.6019 75.7943 8.95086L78.5048 12.8507H75.5013Z" fill="#122645"/>
<path fill-rule="evenodd" clip-rule="evenodd" d="M88.3572 10.1754C88.931 9.84485 89.3828 9.38568 89.7124 8.79796C90.0421 8.21023 90.2008 7.54291 90.2008 6.78988C90.2008 6.04297 90.0421 5.36954 89.7124 4.78181C89.3828 4.19408 88.931 3.73491 88.3572 3.40432C87.7772 3.07372 87.1362 2.91454 86.422 2.91454C85.7077 2.91454 85.0606 3.07372 84.4868 3.40432C83.9129 3.73491 83.4612 4.19408 83.1315 4.78181C82.808 5.36954 82.6431 6.04297 82.6431 6.78988C82.6431 7.54291 82.808 8.21023 83.1315 8.79796C83.4612 9.38568 83.9129 9.84485 84.4868 10.1754C85.0606 10.506 85.7077 10.6652 86.422 10.6652C87.1362 10.6652 87.7772 10.506 88.3572 10.1754ZM83.0277 12.2447C82.0205 11.706 81.233 10.953 80.6652 10.004C80.0914 9.04896 79.8105 7.97758 79.8105 6.78988C79.8105 5.60218 80.0914 4.5308 80.6652 3.57574C81.233 2.6268 82.0205 1.87989 83.0277 1.3289C84.035 0.784024 85.1644 0.514648 86.422 0.514648C87.6796 0.514648 88.8028 0.784024 89.8101 1.3289C90.8113 1.87989 91.6049 2.6268 92.1787 3.57574C92.7526 4.5308 93.0395 5.60218 93.0395 6.78988C93.0395 7.97758 92.7526 9.04896 92.1787 10.004C91.6049 10.953 90.8113 11.706 89.8101 12.2447C88.8028 12.7896 87.6796 13.059 86.422 13.059C85.1644 13.059 84.035 12.7896 83.0277 12.2447Z" fill="#122645"/>
<path fill-rule="evenodd" clip-rule="evenodd" d="M106.325 0.722656V12.8507H104.023L97.9918 5.48571V12.8507H95.2324V0.722656H97.5461L103.559 8.08151V0.722656H106.325Z" fill="#122645"/>
<path fill-rule="evenodd" clip-rule="evenodd" d="M111.779 3.00623H107.908V0.722656H118.445V3.00623H114.581V12.8507H111.779V3.00623Z" fill="#122645"/>
<path fill-rule="evenodd" clip-rule="evenodd" d="M63.6738 20.3324C63.2342 19.9711 62.5993 19.7875 61.7508 19.7875H59.4737V24.0179H61.7508C62.5993 24.0179 63.2342 23.8342 63.6738 23.4669C64.1133 23.0935 64.3331 22.5731 64.3331 21.9058C64.3331 21.2262 64.1133 20.6936 63.6738 20.3324ZM64.3819 29.6319L62.0499 26.2525H61.9156H59.4737V29.6319H56.6777V17.5039H61.9156C62.9839 17.5039 63.9118 17.6814 64.6993 18.0365C65.493 18.3977 66.0973 18.8998 66.5247 19.561C66.952 20.2222 67.1657 20.9997 67.1657 21.9058C67.1657 22.8057 66.9459 23.5832 66.5125 24.2383C66.0851 24.8873 65.4685 25.3893 64.6749 25.7321L67.3854 29.6319H64.3819Z" fill="#122645"/>
<path fill-rule="evenodd" clip-rule="evenodd" d="M77.2441 26.9562C77.8241 26.6256 78.2758 26.1603 78.5994 25.5665C78.929 24.9849 79.0939 24.3114 79.0939 23.5645C79.0939 22.8115 78.929 22.1442 78.5994 21.5564C78.2758 20.9626 77.8241 20.5034 77.2441 20.179C76.6642 19.8484 76.0171 19.6831 75.3028 19.6831C74.5947 19.6831 73.9476 19.8484 73.3737 20.179C72.7999 20.5034 72.3481 20.9626 72.0185 21.5564C71.6888 22.1442 71.524 22.8115 71.524 23.5645C71.524 24.3114 71.6888 24.9849 72.0185 25.5665C72.3481 26.1603 72.7999 26.6256 73.3737 26.9562C73.9476 27.2807 74.5947 27.446 75.3028 27.446C76.0171 27.446 76.6642 27.2807 77.2441 26.9562ZM71.9147 29.0255C70.9074 28.4806 70.1138 27.7337 69.5461 26.7787C68.9783 25.8175 68.6914 24.7522 68.6914 23.5645C68.6914 22.3707 68.9783 21.2993 69.5461 20.3504C70.1138 19.3953 70.9074 18.6545 71.9147 18.1097C72.922 17.5648 74.0514 17.2954 75.3028 17.2954C76.5604 17.2954 77.6959 17.5648 78.6971 18.1097C79.6982 18.6545 80.4858 19.3953 81.0596 20.3504C81.6396 21.2993 81.9265 22.3707 81.9265 23.5645C81.9265 24.7522 81.6396 25.8175 81.0596 26.7787C80.4858 27.7337 79.6982 28.4806 78.6971 29.0255C77.6959 29.5643 76.5604 29.8398 75.3028 29.8398C74.0514 29.8398 72.922 29.5643 71.9147 29.0255Z" fill="#122645"/>
<path fill-rule="evenodd" clip-rule="evenodd" d="M101.992 17.5039L98.0358 29.6319H95.0262L92.3645 21.4221L89.6174 29.6319H86.6321L82.6641 17.5039H85.5638L88.2926 26.026L91.1374 17.5039H93.732L96.4974 26.0994L99.3117 17.5039H101.992Z" fill="#122645"/>
<path fill-rule="evenodd" clip-rule="evenodd" d="M59.4798 36.5252V39.7332H65.0717V41.98H59.4798V46.4002H56.6777V34.2783H65.8165V36.5252H59.4798Z" fill="#122645"/>
<path fill-rule="evenodd" clip-rule="evenodd" d="M69.1302 45.1758C68.1717 44.2146 67.6895 42.8494 67.6895 41.0678V34.2783H70.4854V40.9637C70.4854 43.1371 71.395 44.2207 73.1898 44.2207C74.0628 44.2207 74.7282 43.9575 75.1922 43.4371C75.65 42.9045 75.882 42.0841 75.882 40.9637V34.2783H78.6413V41.0678C78.6413 42.8494 78.1652 44.2146 77.2006 45.1758C76.2422 46.1309 74.8991 46.6084 73.1715 46.6084C71.4439 46.6084 70.0947 46.1309 69.1302 45.1758Z" fill="#122645"/>
<path fill-rule="evenodd" clip-rule="evenodd" d="M92.5786 34.2783V46.4002H90.2833L84.2518 39.0353V46.4002H81.4863V34.2783H83.8L89.8132 41.6372V34.2783H92.5786Z" fill="#122645"/>
<path fill-rule="evenodd" clip-rule="evenodd" d="M100.873 44.0927C102.082 44.0927 103.046 43.7559 103.767 43.0825C104.493 42.4029 104.853 41.4907 104.853 40.3398C104.853 39.1827 104.493 38.2705 103.767 37.5909C103.046 36.9175 102.082 36.5807 100.873 36.5807H98.3214V44.0927H100.873ZM95.5254 34.2788H101.014C102.326 34.2788 103.486 34.5298 104.499 35.0257C105.507 35.5277 106.288 36.2379 106.844 37.1501C107.405 38.0623 107.686 39.1276 107.686 40.3398C107.686 41.552 107.405 42.6111 106.844 43.5233C106.288 44.4355 105.507 45.1457 104.499 45.6538C103.486 46.1497 102.326 46.4007 101.014 46.4007H95.5254V34.2788Z" fill="#122645"/>
</svg>
