<svg width="40" height="40" viewBox="0 0 40 40" fill="none" xmlns="http://www.w3.org/2000/svg">
<path d="M6.66667 24.9999C7.255 24.9999 7.81 25.1199 8.33333 25.3066V21.6666C8.33333 20.7466 9.08 19.9999 10 19.9999H18.3333V25.3066C18.8567 25.1199 19.4117 24.9999 20 24.9999C20.5883 24.9999 21.1433 25.1199 21.6667 25.3066V19.9999H30C30.92 19.9999 31.6667 20.7466 31.6667 21.6666V25.3066C32.19 25.1199 32.745 24.9999 33.3333 24.9999C33.9217 24.9999 34.4767 25.1199 35 25.3066V21.6666C35 18.9049 32.7617 16.6666 30 16.6666H21.6667V13.0266C21.1433 13.2133 20.5883 13.3333 20 13.3333C19.4117 13.3333 18.8567 13.2133 18.3333 13.0266V16.6666H10C7.23833 16.6666 5 18.9049 5 21.6666V25.3066C5.52333 25.1199 6.07833 24.9999 6.66667 24.9999Z" fill="#E23F30"/>
<path opacity="0.35" d="M20 35C22.7614 35 25 32.7614 25 30C25 27.2386 22.7614 25 20 25C17.2386 25 15 27.2386 15 30C15 32.7614 17.2386 35 20 35Z" fill="#E23F30"/>
<path opacity="0.35" d="M20 13.3334C22.7614 13.3334 25 11.0948 25 8.33337C25 5.57195 22.7614 3.33337 20 3.33337C17.2386 3.33337 15 5.57195 15 8.33337C15 11.0948 17.2386 13.3334 20 13.3334Z" fill="#E23F30"/>
<path opacity="0.35" d="M33.3335 35C36.0949 35 38.3335 32.7614 38.3335 30C38.3335 27.2386 36.0949 25 33.3335 25C30.5721 25 28.3335 27.2386 28.3335 30C28.3335 32.7614 30.5721 35 33.3335 35Z" fill="#E23F30"/>
<path opacity="0.35" d="M6.6665 35C9.42793 35 11.6665 32.7614 11.6665 30C11.6665 27.2386 9.42793 25 6.6665 25C3.90508 25 1.6665 27.2386 1.6665 30C1.6665 32.7614 3.90508 35 6.6665 35Z" fill="#E23F30"/>
</svg>
