<svg width="40" height="40" viewBox="0 0 40 40" fill="none" xmlns="http://www.w3.org/2000/svg">
<path d="M28.3923 18.232H11.3633C12.0699 16.1652 14.0307 14.699 16.3448 14.699H23.4108C24.877 14.699 26.2019 15.2996 27.1558 16.2535C27.7034 16.8011 28.145 17.4724 28.3923 18.232Z" fill="#E23F30"/>
<path opacity="0.35" d="M30.8121 37.6632H8.94279C7.12683 37.6632 5.60764 36.2871 5.42746 34.4817L4.36756 22.1162C4.15911 20.0371 5.79312 18.2317 7.88289 18.2317H31.872C33.9617 18.2317 35.5957 20.0371 35.3873 22.1162L34.3274 34.4817C34.1472 36.2871 32.628 37.6632 30.8121 37.6632Z" fill="#E23F30"/>
<path d="M19.8778 30.5974C21.3412 30.5974 22.5275 29.411 22.5275 27.9476C22.5275 26.4842 21.3412 25.2979 19.8778 25.2979C18.4144 25.2979 17.228 26.4842 17.228 27.9476C17.228 29.411 18.4144 30.5974 19.8778 30.5974Z" fill="#E23F30"/>
<path opacity="0.35" d="M19.8776 12.9323C22.8045 12.9323 25.1771 10.5596 25.1771 7.63275C25.1771 4.70592 22.8045 2.33325 19.8776 2.33325C16.9508 2.33325 14.5781 4.70592 14.5781 7.63275C14.5781 10.5596 16.9508 12.9323 19.8776 12.9323Z" fill="#E23F30"/>
</svg>
