<svg width="40" height="40" viewBox="0 0 40 40" fill="none" xmlns="http://www.w3.org/2000/svg">
<g clip-path="url(#clip0_141_956)">
<path opacity="0.35" d="M31.6667 23.3333V13.3333L21.6667 3.33325H10C7.23833 3.33325 5 5.57159 5 8.33325V31.6666C5 34.4283 7.23833 36.6666 10 36.6666H25C25 38.5083 27.985 39.9999 31.6667 39.9999C35.3483 39.9999 38.3333 38.5083 38.3333 36.6666V26.6666C38.3333 24.8249 35.3483 23.3333 31.6667 23.3333Z" fill="#E23F30"/>
<path d="M19.7002 24.0882C19.7002 19.6065 14.7535 20.2182 14.7535 17.8815C14.7535 16.5065 15.8352 16.3615 16.2085 16.3615C16.5768 16.3615 16.9035 16.4498 17.1802 16.5748C17.8302 16.8682 18.6018 16.5965 19.0135 16.0132C19.5418 15.2665 19.2685 14.2148 18.4352 13.8398C17.9768 13.6332 17.4068 13.4682 16.7152 13.4032V12.7532C16.7152 12.1515 16.2302 11.6665 15.6318 11.6665C15.0318 11.6665 14.5468 12.1515 14.5468 12.7515V13.6315C12.7318 14.2365 11.5518 15.8982 11.5518 18.0248C11.5518 22.7282 16.4385 21.8782 16.4385 24.3248C16.4385 24.7965 16.2152 25.8215 15.0035 25.8215C14.4652 25.8215 14.0002 25.6698 13.6218 25.4715C12.9785 25.1348 12.1818 25.3832 11.7718 25.9815L11.7285 26.0448C11.2552 26.7365 11.4468 27.7065 12.1752 28.1198C12.7885 28.4682 13.5368 28.7382 14.4418 28.8332V29.5948C14.4418 30.1932 14.9268 30.6798 15.5268 30.6798C16.1252 30.6798 16.6118 30.1948 16.6118 29.5948V28.6382C18.6168 28.0232 19.7002 26.1915 19.7002 24.0882Z" fill="#E23F30"/>
<path d="M31.6667 29.9999C35.3486 29.9999 38.3333 28.5075 38.3333 26.6666C38.3333 24.8256 35.3486 23.3333 31.6667 23.3333C27.9848 23.3333 25 24.8256 25 26.6666C25 28.5075 27.9848 29.9999 31.6667 29.9999Z" fill="#E23F30"/>
<path d="M31.6667 33.3333C27.985 33.3333 25 31.8417 25 30V35C25 35.0333 25.0183 35.065 25.02 35.0983C26.75 36.0867 29.0417 36.6667 31.6667 36.6667C34.2917 36.6667 36.5833 36.0867 38.3133 35.0983C38.315 35.065 38.3333 35.0333 38.3333 35V30C38.3333 31.8417 35.3483 33.3333 31.6667 33.3333Z" fill="#E23F30"/>
<path d="M21.6665 10.0002V3.3335L31.6665 13.3335H24.9998C23.1582 13.3335 21.6665 11.8418 21.6665 10.0002Z" fill="#E23F30"/>
</g>
<defs>
<clipPath id="clip0_141_956">
<rect width="40" height="40" fill="white"/>
</clipPath>
</defs>
</svg>
