<svg width="110" height="110" viewBox="0 0 110 110" fill="none" xmlns="http://www.w3.org/2000/svg">
<path d="M79 19H15C10.582 19 7 22.582 7 27V67C7 71.418 10.582 75 15 75H79C83.418 75 87 71.418 87 67V27C87 22.582 83.418 19 79 19Z" fill="#50D7D0" fill-opacity="0.35"/>
<path opacity="0.6" d="M87 27.0499C87 26.1199 86.81 25.2419 86.52 24.4099L47 53.0499L7.482 24.4099C7.19 25.2419 7 26.1219 7 27.0499V28.9999L47 57.9899L87 28.9999V27.0499Z" fill="#43BFB9"/>
<path d="M84 52C72.956 52 64 60.956 64 72C64 83.044 72.956 92 84 92C95.044 92 104 83.044 104 72C104 60.956 95.044 52 84 52Z" fill="#43BFBA"/>
<path d="M84.4142 79.0963L93.1108 70.2707C94.297 69.0633 94.297 67.1076 93.1073 65.9002C91.9211 64.6999 89.9904 64.6999 88.8042 65.9002L82.2609 72.5441L79.1927 69.4305C78.0065 68.2302 76.0759 68.2302 74.8897 69.4305C73.7034 70.6378 73.7034 72.5936 74.8897 73.8009L80.1076 79.0963C80.6816 79.6787 81.4469 80 82.2609 80C83.0749 80 83.8402 79.6787 84.4142 79.0963Z" fill="white"/>
</svg>
