<svg width="32" height="32" viewBox="0 0 32 32" fill="none" xmlns="http://www.w3.org/2000/svg">
<path opacity="0.35" d="M16.0001 2.66669C8.63608 2.66669 2.66675 8.63602 2.66675 16C2.66675 23.364 8.63608 29.3334 16.0001 29.3334C23.3641 29.3334 29.3334 23.364 29.3334 16C29.3334 8.63602 23.3641 2.66669 16.0001 2.66669Z" fill="#43BFBA"/>
<path d="M11.3507 13.2413H9.32932C8.99466 13.2413 8.72266 13.5133 8.72266 13.848V22.3373C8.72266 22.672 8.99466 22.944 9.32932 22.944H11.3507C11.6853 22.944 11.9573 22.672 11.9573 22.3373V13.848C11.9573 13.512 11.6853 13.2413 11.3507 13.2413Z" fill="#43BFBA"/>
<path d="M10.34 8.39069C9.44932 8.39069 8.72266 9.11735 8.72266 10.008C8.72266 10.8987 9.44932 11.6254 10.34 11.6254C11.2307 11.6254 11.9573 10.8987 11.9573 10.008C11.9573 9.11735 11.2307 8.39069 10.34 8.39069Z" fill="#43BFBA"/>
<path d="M19.544 13.2413C18.028 13.2413 17.264 13.848 16.8467 14.656H16.8094V13.848C16.8094 13.5133 16.5374 13.2413 16.2027 13.2413H14.1814C13.8467 13.2413 13.5747 13.5133 13.5747 13.848V22.3373C13.5747 22.672 13.8467 22.944 14.1814 22.944H16.2027C16.5374 22.944 16.8094 22.672 16.8094 22.3373V18.6107C16.8094 16.88 17.2134 16.0587 18.5534 16.0587C19.64 16.0587 20.044 16.88 20.044 18.6987V22.3373C20.044 22.672 20.316 22.944 20.6507 22.944H22.672C23.0067 22.944 23.2787 22.672 23.2787 22.3373V18.156C23.276 15.376 22.696 13.2413 19.544 13.2413Z" fill="#43BFBA"/>
</svg>
