<svg width="122" height="49" viewBox="0 0 122 49" fill="none" xmlns="http://www.w3.org/2000/svg">
<path fill-rule="evenodd" clip-rule="evenodd" d="M62.4798 3.97562V7.17752H68.0717V9.43048H62.4798V13.8507H59.6777V1.72266H68.8165V3.97562H62.4798Z" fill="white"/>
<path fill-rule="evenodd" clip-rule="evenodd" d="M77.7931 4.55722C77.3536 4.18989 76.7126 4.00623 75.8763 4.00623H73.587V8.23665H75.8763C76.7126 8.23665 77.3536 8.05299 77.7931 7.67954C78.2266 7.3122 78.4464 6.79182 78.4464 6.1245C78.4464 5.43882 78.2266 4.91843 77.7931 4.55722ZM78.5013 13.8507L76.1693 10.4774H76.0289H73.587V13.8507H70.791V1.72266H76.0289C77.1033 1.72266 78.0312 1.9002 78.8187 2.26141C79.6062 2.62262 80.2167 3.12463 80.6441 3.78583C81.0653 4.4409 81.2789 5.21842 81.2789 6.1245C81.2789 7.02446 81.0653 7.79586 80.6318 8.45093C80.1984 9.106 79.5879 9.6019 78.7943 9.95086L81.5048 13.8507H78.5013Z" fill="white"/>
<path fill-rule="evenodd" clip-rule="evenodd" d="M91.3572 11.1754C91.931 10.8448 92.3828 10.3857 92.7124 9.79796C93.0421 9.21023 93.2008 8.54291 93.2008 7.78988C93.2008 7.04297 93.0421 6.36954 92.7124 5.78181C92.3828 5.19408 91.931 4.73491 91.3572 4.40432C90.7772 4.07372 90.1362 3.91454 89.422 3.91454C88.7077 3.91454 88.0606 4.07372 87.4868 4.40432C86.9129 4.73491 86.4612 5.19408 86.1315 5.78181C85.808 6.36954 85.6431 7.04297 85.6431 7.78988C85.6431 8.54291 85.808 9.21023 86.1315 9.79796C86.4612 10.3857 86.9129 10.8448 87.4868 11.1754C88.0606 11.506 88.7077 11.6652 89.422 11.6652C90.1362 11.6652 90.7772 11.506 91.3572 11.1754ZM86.0277 13.2447C85.0205 12.706 84.233 11.953 83.6652 11.004C83.0914 10.049 82.8105 8.97758 82.8105 7.78988C82.8105 6.60218 83.0914 5.5308 83.6652 4.57574C84.233 3.6268 85.0205 2.87989 86.0277 2.3289C87.035 1.78402 88.1644 1.51465 89.422 1.51465C90.6796 1.51465 91.8028 1.78402 92.8101 2.3289C93.8113 2.87989 94.6049 3.6268 95.1787 4.57574C95.7526 5.5308 96.0395 6.60218 96.0395 7.78988C96.0395 8.97758 95.7526 10.049 95.1787 11.004C94.6049 11.953 93.8113 12.706 92.8101 13.2447C91.8028 13.7896 90.6796 14.059 89.422 14.059C88.1644 14.059 87.035 13.7896 86.0277 13.2447Z" fill="white"/>
<path fill-rule="evenodd" clip-rule="evenodd" d="M109.325 1.72266V13.8507H107.023L100.992 6.48571V13.8507H98.2324V1.72266H100.546L106.559 9.08151V1.72266H109.325Z" fill="white"/>
<path fill-rule="evenodd" clip-rule="evenodd" d="M114.779 4.00623H110.908V1.72266H121.445V4.00623H117.581V13.8507H114.779V4.00623Z" fill="white"/>
<path fill-rule="evenodd" clip-rule="evenodd" d="M66.6738 21.3324C66.2342 20.9711 65.5993 20.7875 64.7508 20.7875H62.4737V25.0179H64.7508C65.5993 25.0179 66.2342 24.8342 66.6738 24.4669C67.1133 24.0935 67.3331 23.5731 67.3331 22.9058C67.3331 22.2262 67.1133 21.6936 66.6738 21.3324ZM67.3819 30.6319L65.0499 27.2525H64.9156H62.4737V30.6319H59.6777V18.5039H64.9156C65.9839 18.5039 66.9118 18.6814 67.6993 19.0365C68.493 19.3977 69.0973 19.8998 69.5247 20.561C69.952 21.2222 70.1657 21.9997 70.1657 22.9058C70.1657 23.8057 69.9459 24.5832 69.5125 25.2383C69.0851 25.8873 68.4685 26.3893 67.6749 26.7321L70.3854 30.6319H67.3819Z" fill="white"/>
<path fill-rule="evenodd" clip-rule="evenodd" d="M80.2441 27.9562C80.8241 27.6256 81.2758 27.1603 81.5994 26.5665C81.929 25.9849 82.0939 25.3114 82.0939 24.5645C82.0939 23.8115 81.929 23.1442 81.5994 22.5564C81.2758 21.9626 80.8241 21.5034 80.2441 21.179C79.6642 20.8484 79.0171 20.6831 78.3028 20.6831C77.5947 20.6831 76.9476 20.8484 76.3737 21.179C75.7999 21.5034 75.3481 21.9626 75.0185 22.5564C74.6888 23.1442 74.524 23.8115 74.524 24.5645C74.524 25.3114 74.6888 25.9849 75.0185 26.5665C75.3481 27.1603 75.7999 27.6256 76.3737 27.9562C76.9476 28.2807 77.5947 28.446 78.3028 28.446C79.0171 28.446 79.6642 28.2807 80.2441 27.9562ZM74.9147 30.0255C73.9074 29.4806 73.1138 28.7337 72.5461 27.7787C71.9783 26.8175 71.6914 25.7522 71.6914 24.5645C71.6914 23.3707 71.9783 22.2993 72.5461 21.3504C73.1138 20.3953 73.9074 19.6545 74.9147 19.1097C75.922 18.5648 77.0514 18.2954 78.3028 18.2954C79.5604 18.2954 80.6959 18.5648 81.6971 19.1097C82.6982 19.6545 83.4858 20.3953 84.0596 21.3504C84.6396 22.2993 84.9265 23.3707 84.9265 24.5645C84.9265 25.7522 84.6396 26.8175 84.0596 27.7787C83.4858 28.7337 82.6982 29.4806 81.6971 30.0255C80.6959 30.5643 79.5604 30.8398 78.3028 30.8398C77.0514 30.8398 75.922 30.5643 74.9147 30.0255Z" fill="white"/>
<path fill-rule="evenodd" clip-rule="evenodd" d="M104.992 18.5039L101.036 30.6319H98.0262L95.3645 22.4221L92.6174 30.6319H89.6321L85.6641 18.5039H88.5638L91.2926 27.026L94.1374 18.5039H96.732L99.4974 27.0994L102.312 18.5039H104.992Z" fill="white"/>
<path fill-rule="evenodd" clip-rule="evenodd" d="M62.4798 37.5252V40.7332H68.0717V42.98H62.4798V47.4002H59.6777V35.2783H68.8165V37.5252H62.4798Z" fill="white"/>
<path fill-rule="evenodd" clip-rule="evenodd" d="M72.1302 46.1758C71.1717 45.2146 70.6895 43.8494 70.6895 42.0678V35.2783H73.4854V41.9637C73.4854 44.1371 74.395 45.2207 76.1898 45.2207C77.0628 45.2207 77.7282 44.9575 78.1922 44.4371C78.65 43.9045 78.882 43.0841 78.882 41.9637V35.2783H81.6413V42.0678C81.6413 43.8494 81.1652 45.2146 80.2006 46.1758C79.2422 47.1309 77.8991 47.6084 76.1715 47.6084C74.4439 47.6084 73.0947 47.1309 72.1302 46.1758Z" fill="white"/>
<path fill-rule="evenodd" clip-rule="evenodd" d="M95.5786 35.2783V47.4002H93.2833L87.2518 40.0353V47.4002H84.4863V35.2783H86.8L92.8132 42.6372V35.2783H95.5786Z" fill="white"/>
<path fill-rule="evenodd" clip-rule="evenodd" d="M103.873 45.0927C105.082 45.0927 106.046 44.7559 106.767 44.0825C107.493 43.4029 107.853 42.4907 107.853 41.3398C107.853 40.1827 107.493 39.2705 106.767 38.5909C106.046 37.9175 105.082 37.5807 103.873 37.5807H101.321V45.0927H103.873ZM98.5254 35.2788H104.014C105.326 35.2788 106.486 35.5298 107.499 36.0257C108.507 36.5277 109.288 37.2379 109.844 38.1501C110.405 39.0623 110.686 40.1276 110.686 41.3398C110.686 42.552 110.405 43.6111 109.844 44.5233C109.288 45.4355 108.507 46.1457 107.499 46.6538C106.486 47.1497 105.326 47.4007 104.014 47.4007H98.5254V35.2788Z" fill="white"/>
<path d="M41.0586 1.90918L47.3674 13.2125L53.6763 1.90918H41.0586Z" fill="#0A2E3A"/>
<path d="M22.2637 13.2125L28.4411 1.90918L34.7499 13.2125H22.2637Z" fill="#495560"/>
<path d="M41.0591 1.90918H28.4414L34.7502 13.2125H47.3679L41.0591 1.90918Z" fill="#43BFBA"/>
<path d="M22.2637 13.2124L28.4411 24.5157L34.7499 13.2124H22.2637Z" fill="#E23F30"/>
<path d="M28.4414 24.5157L34.7502 13.2124L41.0591 24.5157H28.4414Z" fill="#F05E2D"/>
<path d="M28.4414 24.5156L34.7502 35.819L41.0591 24.5156H28.4414Z" fill="#E16626"/>
<path d="M15.9556 24.5156H3.33789L9.64673 35.819H22.2644L15.9556 24.5156Z" fill="#FBB564"/>
<path d="M28.4413 24.5156H15.9551L22.2639 35.819H34.7502L28.4413 24.5156Z" fill="#F9A63F"/>
<path d="M9.64648 35.8193L15.9553 47.1227L22.2642 35.8193H9.64648Z" fill="#495560"/>
<path d="M3.33789 47.1227L9.64673 35.8193L15.9556 47.1227H3.33789Z" fill="#43BFBA"/>
<path d="M15.9551 24.5157L22.2639 13.2124L28.4413 24.5157H15.9551Z" fill="#0A2E3A"/>
<path d="M2.84708 24.869L9.13377 35.9917L2.85431 46.6185L2.18566 47.75H3.5H16H16.4546L16.6649 47.3469L22.4546 36.25H35H35.4452L35.6584 35.8591L41.6584 24.8591L41.8578 24.4935L41.6529 24.131L35.7854 13.75H47.5H47.928L48.1457 13.3815L54.6457 2.38155L55.3143 1.25H54H28.5H28.0587L27.8444 1.63577L15.5587 23.75H3.5H2.21458L2.84708 24.869Z" stroke="#495560" stroke-width="1.5"/>
</svg>
