<svg width="48" height="48" viewBox="0 0 48 48" fill="none" xmlns="http://www.w3.org/2000/svg">
<path opacity="0.35" d="M24 20C28.4183 20 32 16.4183 32 12C32 7.58172 28.4183 4 24 4C19.5817 4 16 7.58172 16 12C16 16.4183 19.5817 20 24 20Z" fill="#50D7D0"/>
<path opacity="0.35" d="M9 24C11.7614 24 14 21.7614 14 19C14 16.2386 11.7614 14 9 14C6.23858 14 4 16.2386 4 19C4 21.7614 6.23858 24 9 24Z" fill="#50D7D0"/>
<path opacity="0.35" d="M39 24C41.7614 24 44 21.7614 44 19C44 16.2386 41.7614 14 39 14C36.2386 14 34 16.2386 34 19C34 21.7614 36.2386 24 39 24Z" fill="#50D7D0"/>
<path d="M30 38H18C14.686 38 12 34.866 12 31C12 27.134 14.686 24 18 24H30C33.314 24 36 27.134 36 31C36 34.866 33.314 38 30 38Z" fill="#50D7D0"/>
<path opacity="0.35" d="M43.102 28H4.744C2.124 28 0 30.124 0 32.744V33.258C0 35.876 2.124 38 4.744 38H43.102C45.806 38 48 35.806 48 33.1V32.898C48 30.194 45.806 28 43.102 28Z" fill="#50D7D0"/>
</svg>
