<svg width="32" height="32" viewBox="0 0 32 32" fill="none" xmlns="http://www.w3.org/2000/svg">
<path opacity="0.35" d="M16.0001 29.3333C23.3639 29.3333 29.3334 23.3638 29.3334 16C29.3334 8.63619 23.3639 2.66666 16.0001 2.66666C8.63628 2.66666 2.66675 8.63619 2.66675 16C2.66675 23.3638 8.63628 29.3333 16.0001 29.3333Z" fill="#43BFB9"/>
<path d="M14.6667 21.3333C14.3253 21.3333 13.984 21.2027 13.724 20.9427L9.72401 16.9427C9.20267 16.4213 9.20267 15.5787 9.72401 15.0573C10.2453 14.536 11.088 14.536 11.6093 15.0573L14.6667 18.1147L20.3907 12.3907C20.912 11.8693 21.7547 11.8693 22.276 12.3907C22.7973 12.912 22.7973 13.7547 22.276 14.276L15.6093 20.9427C15.3493 21.2027 15.008 21.3333 14.6667 21.3333Z" fill="#43BFB9"/>
</svg>
