<svg width="159" height="27" viewBox="0 0 159 27" fill="none" xmlns="http://www.w3.org/2000/svg">
<path d="M151.889 24.0444H152.626V21.1294H153.684V20.5215H150.832V21.1294H151.889V24.0444Z" fill="#47A1F8"/>
<path d="M154.335 24.0444H154.992V21.647H155.356L154.655 20.6191L155.944 24.0444H156.406L157.697 20.6191L156.994 21.647H157.358V24.0444H158.015V20.5215H157.17L156.198 23.0996H156.154L155.18 20.5215H154.335V24.0444Z" fill="#47A1F8"/>
<path d="M2.74609 18.3013H10.4785C12.3092 18.3013 13.9111 17.9339 15.2842 17.1992C16.6572 16.4645 17.7231 15.4287 18.4819 14.0918C19.2528 12.7549 19.6382 11.1891 19.6382 9.39453V9.3584C19.6382 7.57585 19.2528 6.01611 18.4819 4.6792C17.7231 3.34229 16.6572 2.30648 15.2842 1.57178C13.9111 0.825033 12.3092 0.45166 10.4785 0.45166H2.74609V4.76953H9.1416C10.7074 4.76953 11.9238 5.16699 12.791 5.96191C13.6702 6.75684 14.1099 7.89502 14.1099 9.37646V9.4126C14.1099 10.894 13.6702 12.0382 12.791 12.8452C11.9238 13.6401 10.7074 14.0376 9.1416 14.0376H2.74609V18.3013ZM0 26.5215H5.45605V0.45166H0V26.5215Z" fill="#47A1F8"/>
<path d="M22.4204 26.5215H27.6958V15.6816C27.6958 14.7422 27.8584 13.9473 28.1836 13.2969C28.5088 12.6465 28.9785 12.1527 29.5928 11.8154C30.207 11.4782 30.9478 11.3096 31.8149 11.3096C32.2004 11.3096 32.5617 11.3397 32.8989 11.3999C33.2362 11.4481 33.5132 11.5143 33.73 11.5986V6.95557C33.5373 6.89535 33.3084 6.84717 33.0435 6.81104C32.7785 6.7749 32.5015 6.75684 32.2124 6.75684C31.0802 6.75684 30.1348 7.08805 29.376 7.75049C28.6172 8.41292 28.0933 9.34033 27.8042 10.5327H27.6958V7.1543H22.4204V26.5215Z" fill="#47A1F8"/>
<path d="M44.1001 26.9189C45.4852 26.9189 46.6896 26.7383 47.7134 26.377C48.7492 26.0156 49.6224 25.5339 50.333 24.9316C51.0557 24.3294 51.6278 23.667 52.0493 22.9443C52.4709 22.2217 52.7539 21.505 52.8984 20.7944L52.9526 20.5957H48.1108L48.0747 20.7041C47.9543 21.0654 47.7254 21.4207 47.3882 21.77C47.0509 22.1193 46.6174 22.4084 46.0874 22.6372C45.5575 22.866 44.9312 22.9805 44.2085 22.9805C43.2931 22.9805 42.5042 22.7817 41.8418 22.3843C41.1794 21.9748 40.6675 21.3906 40.3062 20.6318C39.9569 19.873 39.7822 18.9577 39.7822 17.8857V15.8442C39.7822 14.7362 39.9569 13.8027 40.3062 13.0439C40.6675 12.2731 41.1613 11.689 41.7876 11.2915C42.4259 10.894 43.1546 10.6953 43.9736 10.6953C44.7926 10.6953 45.5093 10.888 46.1235 11.2734C46.7498 11.6589 47.2376 12.237 47.5869 13.0078C47.9362 13.7666 48.1108 14.7121 48.1108 15.8442V17.8677L50.6221 14.7603H37.1626V18.0845H53.1152V16.4585C53.1152 14.5073 52.7358 12.8031 51.9771 11.3457C51.2303 9.88835 50.1644 8.76221 48.7793 7.96729C47.4062 7.16032 45.7743 6.75684 43.8833 6.75684C41.9924 6.75684 40.3483 7.17236 38.9512 8.00342C37.5661 8.82243 36.4881 9.99072 35.7173 11.5083C34.9585 13.0138 34.5791 14.7964 34.5791 16.856V16.874C34.5791 18.9336 34.9585 20.7161 35.7173 22.2217C36.4881 23.7272 37.5841 24.8895 39.0054 25.7085C40.4266 26.5155 42.1248 26.9189 44.1001 26.9189Z" fill="#47A1F8"/>
<path d="M65.8159 26.9731C68.008 26.9731 69.8869 26.6419 71.4526 25.9795C73.0304 25.305 74.2349 24.3595 75.0659 23.1431C75.909 21.9146 76.3306 20.4632 76.3306 18.7891V18.771C76.3306 16.7235 75.6922 15.1156 74.4155 13.9473C73.1509 12.7669 71.1515 11.9058 68.4175 11.3638L65.6533 10.8037C64.1598 10.5026 63.0638 10.0991 62.3652 9.59326C61.6667 9.0874 61.3174 8.42497 61.3174 7.60596V7.58789C61.3174 6.96159 61.492 6.41357 61.8413 5.94385C62.2026 5.47412 62.7205 5.10677 63.395 4.8418C64.0695 4.56478 64.8704 4.42627 65.7979 4.42627C66.7012 4.42627 67.4961 4.55876 68.1826 4.82373C68.8812 5.0887 69.4412 5.4681 69.8628 5.96191C70.2843 6.44369 70.5433 7.02783 70.6396 7.71436L70.6577 7.93115H75.8066L75.7886 7.58789C75.7043 6.07031 75.2526 4.73942 74.4336 3.59521C73.6146 2.45101 72.4704 1.56576 71.001 0.939453C69.5436 0.313151 67.8092 0 65.7979 0C63.8708 0 62.1605 0.331217 60.667 0.993652C59.1735 1.64404 57.9992 2.56543 57.144 3.75781C56.2889 4.93815 55.8613 6.32324 55.8613 7.91309V7.93115C55.8613 9.89437 56.5117 11.4902 57.8125 12.7188C59.1133 13.9473 61.0464 14.8205 63.6118 15.3384L66.3579 15.8804C67.9839 16.2176 69.1401 16.6392 69.8267 17.145C70.5252 17.6388 70.8745 18.3254 70.8745 19.2046V19.2227C70.8745 19.8851 70.6698 20.4692 70.2603 20.9751C69.8628 21.4689 69.2967 21.8543 68.562 22.1313C67.8394 22.3963 66.9722 22.5288 65.9604 22.5288C64.9728 22.5288 64.0876 22.3963 63.3047 22.1313C62.5218 21.8543 61.8835 21.4749 61.3896 20.9932C60.9079 20.4993 60.6068 19.9152 60.4863 19.2407L60.4502 19.042H55.3013L55.3193 19.3311C55.4277 20.9329 55.9216 22.306 56.8008 23.4502C57.68 24.5824 58.8844 25.4556 60.4141 26.0698C61.9557 26.672 63.7563 26.9731 65.8159 26.9731Z" fill="#47A1F8"/>
<path d="M79.3477 26.5215H84.623V15.4287C84.623 14.5856 84.7796 13.8449 85.0928 13.2065C85.418 12.5562 85.8636 12.0503 86.4297 11.689C87.0078 11.3156 87.6823 11.1289 88.4531 11.1289C89.6576 11.1289 90.5789 11.5143 91.2173 12.2852C91.8677 13.0439 92.1929 14.0978 92.1929 15.4468V26.5215H97.4683V14.3628C97.4683 12.797 97.1912 11.4481 96.6372 10.3159C96.0952 9.18376 95.3184 8.31055 94.3066 7.69629C93.2949 7.06999 92.0845 6.75684 90.6753 6.75684C89.23 6.75684 88.0015 7.08203 86.9897 7.73242C85.9901 8.37077 85.2373 9.29216 84.7314 10.4966H84.623V0.45166H79.3477V26.5215Z" fill="#47A1F8"/>
<path d="M109.753 26.9189C111.705 26.9189 113.397 26.5215 114.83 25.7266C116.263 24.9196 117.371 23.7633 118.154 22.2578C118.949 20.7523 119.347 18.9456 119.347 16.8379V16.8018C119.347 14.7061 118.949 12.9115 118.154 11.418C117.359 9.91243 116.239 8.76221 114.794 7.96729C113.361 7.16032 111.674 6.75684 109.735 6.75684C107.808 6.75684 106.128 7.16032 104.695 7.96729C103.262 8.77425 102.147 9.9305 101.353 11.436C100.558 12.9295 100.16 14.7181 100.16 16.8018V16.8379C100.16 18.9336 100.552 20.7342 101.334 22.2397C102.117 23.7453 103.225 24.9015 104.659 25.7085C106.092 26.5155 107.79 26.9189 109.753 26.9189ZM109.771 22.7817C108.904 22.7817 108.152 22.5529 107.513 22.0952C106.875 21.6255 106.381 20.951 106.032 20.0718C105.694 19.1805 105.526 18.1025 105.526 16.8379V16.8018C105.526 15.5492 105.701 14.4832 106.05 13.604C106.399 12.7248 106.887 12.0563 107.513 11.5986C108.152 11.1289 108.892 10.894 109.735 10.894C110.59 10.894 111.337 11.1289 111.976 11.5986C112.614 12.0563 113.108 12.7248 113.457 13.604C113.806 14.4832 113.981 15.5492 113.981 16.8018V16.8379C113.981 18.1025 113.806 19.1805 113.457 20.0718C113.12 20.951 112.632 21.6255 111.994 22.0952C111.367 22.5529 110.627 22.7817 109.771 22.7817Z" fill="#47A1F8"/>
<path d="M125.67 26.5215H131.216L134.703 12.8271H134.812L138.316 26.5215H143.935L149.066 7.1543H143.863L140.918 21.5171H140.81L137.359 7.1543H132.3L128.868 21.5171H128.759L125.833 7.1543H120.521L125.67 26.5215Z" fill="#47A1F8"/>
</svg>
