<svg width="40" height="40" viewBox="0 0 40 40" fill="none" xmlns="http://www.w3.org/2000/svg">
<path opacity="0.35" d="M31.7385 23.3317V10.3267C31.7385 7.9317 29.8302 5.9917 27.4785 5.9917H10.7485C11.4285 6.76003 11.8552 7.7667 11.8552 8.8817V18.2634C11.8552 19.3667 10.6802 20.145 9.74516 19.5884C9.1135 19.2117 8.3785 18.9967 7.59516 18.9967C5.24183 18.9967 3.3335 20.9367 3.3335 23.3317C3.3335 25.7267 5.24183 27.6667 7.5935 27.6667H27.4768C29.8302 27.6667 31.7385 25.725 31.7385 23.3317Z" fill="#E23F30"/>
<path d="M31.5665 9.41003C31.6298 9.70503 31.6665 10.0117 31.6665 10.3267V23.3317C31.6665 25.725 29.7582 27.6667 27.4065 27.6667H7.52316C7.23982 27.6667 6.96316 27.635 6.69482 27.5817C7.10982 29.535 8.81316 31 10.8565 31H30.7398C33.0915 31 34.9998 29.0584 34.9998 26.665V13.66C34.9998 11.5534 33.5232 9.8017 31.5665 9.41003Z" fill="#E23F30"/>
<path opacity="0.35" d="M34.9 12.7433C34.9633 13.0383 35 13.345 35 13.66V26.665C35 29.0583 33.0917 31 30.74 31H10.8567C10.5733 31 10.2967 30.9683 10.0283 30.915C10.4433 32.8683 12.1467 34.3333 14.19 34.3333H34.0733C36.425 34.3333 38.3333 32.3916 38.3333 29.9983V16.9933C38.3333 14.8866 36.8567 13.135 34.9 12.7433Z" fill="#E23F30"/>
<path d="M26.5381 10.3634C26.3698 9.95504 26.0448 9.63004 25.6364 9.46171C25.4331 9.37837 25.2164 9.33337 24.9998 9.33337H20.6898C19.2048 9.33337 18.4614 11.1284 19.5114 12.1784L20.4881 13.155L17.1548 16.4884C16.5031 17.14 16.5031 18.1934 17.1548 18.845C17.4798 19.17 17.9064 19.3334 18.3331 19.3334C18.7598 19.3334 19.1864 19.17 19.5114 18.845L22.8448 15.5117L23.8214 16.4884C24.8714 17.5384 26.6664 16.795 26.6664 15.31V11C26.6664 10.7834 26.6214 10.5667 26.5381 10.3634Z" fill="#E23F30"/>
<path d="M7.5935 18.9966C8.3785 18.9966 9.1135 19.2116 9.7435 19.5883C10.6785 20.145 11.8535 19.3666 11.8535 18.2633V8.88163C11.8535 6.48663 9.94516 4.54663 7.5935 4.54663C5.24183 4.54663 3.3335 6.48663 3.3335 8.88163V23.3316C3.3335 20.9366 5.24183 18.9966 7.5935 18.9966Z" fill="#E23F30"/>
<path d="M25 24.3333H16.6667C15.7467 24.3333 15 23.5867 15 22.6667C15 21.7467 15.7467 21 16.6667 21H25C25.92 21 26.6667 21.7467 26.6667 22.6667C26.6667 23.5867 25.92 24.3333 25 24.3333Z" fill="#E23F30"/>
</svg>
