<svg width="48" height="48" viewBox="0 0 48 48" fill="none" xmlns="http://www.w3.org/2000/svg">
<g clip-path="url(#clip0_141_924)">
<path opacity="0.35" d="M38 36H10C6.686 36 4 33.314 4 30V14C4 10.686 6.686 8 10 8H38C41.314 8 44 10.686 44 14V30C44 33.314 41.314 36 38 36Z" fill="#50D7D0"/>
<path d="M31 36C30.648 36 17.352 36 17 36C15.344 36 14 37.344 14 39C14 40.656 15.344 42 17 42C17.352 42 30.648 42 31 42C32.656 42 34 40.656 34 39C34 37.344 32.656 36 31 36Z" fill="#50D7D0"/>
<path d="M24 8V18C24 18.944 24.664 19.758 25.586 19.958C25.624 19.966 29.446 20.808 32.72 23.538C33.09 23.846 33.544 24 34 24C34.456 24 34.91 23.846 35.28 23.536C38.554 20.808 42.376 19.964 42.408 19.958C43.336 19.764 44 18.948 44 18V8H24Z" fill="#50D7D0"/>
<path d="M46.894 6.21004L34.894 0.210035C34.332 -0.0719648 33.668 -0.0719648 33.104 0.210035L21.104 6.21004C20.428 6.55004 20 7.24204 20 8.00004C20 8.75804 20.428 9.45004 21.106 9.79004L33.106 15.79C33.386 15.93 33.694 16 34 16C34.306 16 34.614 15.93 34.894 15.79L46.894 9.79004C47.572 9.45004 48 8.75804 48 8.00004C48 7.24204 47.572 6.55004 46.894 6.21004Z" fill="#50D7D0"/>
</g>
<defs>
<clipPath id="clip0_141_924">
<rect width="48" height="48" fill="white"/>
</clipPath>
</defs>
</svg>
