<svg width="48" height="48" viewBox="0 0 48 48" fill="none" xmlns="http://www.w3.org/2000/svg">
<path d="M31.1542 39.488L32.0482 36H15.9521L16.8441 39.488C17.5241 42.142 19.9161 44 22.6562 44H25.3421C28.0842 44 30.4762 42.142 31.1542 39.488Z" fill="#50D7D0"/>
<path d="M42 6C43.1046 6 44 5.10457 44 4C44 2.89543 43.1046 2 42 2C40.8954 2 40 2.89543 40 4C40 5.10457 40.8954 6 42 6Z" fill="#50D7D0"/>
<path d="M42 34C43.1046 34 44 33.1046 44 32C44 30.8954 43.1046 30 42 30C40.8954 30 40 30.8954 40 32C40 33.1046 40.8954 34 42 34Z" fill="#50D7D0"/>
<path d="M6 34C7.10457 34 8 33.1046 8 32C8 30.8954 7.10457 30 6 30C4.89543 30 4 30.8954 4 32C4 33.1046 4.89543 34 6 34Z" fill="#50D7D0"/>
<path d="M46 20C47.1046 20 48 19.1046 48 18C48 16.8954 47.1046 16 46 16C44.8954 16 44 16.8954 44 18C44 19.1046 44.8954 20 46 20Z" fill="#50D7D0"/>
<path opacity="0.35" d="M24 2C20.204 2 16.72 3.328 13.978 5.538C12.916 4.592 11.534 4 10 4C6.686 4 4 6.686 4 10C4 12.676 5.764 14.918 8.186 15.69C8.076 16.446 8 17.214 8 18C8 23.35 10.634 28.072 14.666 30.978L15.952 36H32.048L33.334 30.978C37.366 28.072 40 23.35 40 18C40 9.164 32.836 2 24 2Z" fill="#50D7D0"/>
<path d="M17.9998 10C17.9998 9.24 18.3418 8.562 18.8798 8.108C19.3578 7.702 19.5678 7.058 19.3478 6.47C18.9598 5.444 18.4098 4.498 17.7258 3.666C17.3438 3.198 16.6978 3.018 16.1358 3.236C15.4578 3.496 14.6778 3.462 13.9998 3.072C13.3198 2.68 12.8998 2.016 12.7898 1.296C12.6998 0.708 12.2338 0.238 11.6458 0.14C11.1118 0.048 10.5618 0 9.9998 0C9.4378 0 8.8878 0.048 8.3538 0.14C7.7658 0.238 7.2998 0.708 7.2098 1.296C7.0998 2.016 6.6798 2.68 5.9998 3.072C5.3218 3.462 4.5418 3.496 3.8638 3.236C3.3018 3.018 2.6558 3.198 2.2738 3.666C1.5898 4.498 1.0398 5.444 0.651801 6.47C0.431801 7.056 0.641801 7.702 1.1198 8.108C1.6578 8.562 1.9998 9.24 1.9998 10C1.9998 10.76 1.6578 11.438 1.1198 11.892C0.641801 12.298 0.431801 12.944 0.651801 13.53C1.0398 14.556 1.5898 15.502 2.2718 16.334C2.6558 16.802 3.2998 16.98 3.8638 16.764C4.5418 16.504 5.3218 16.538 5.9998 16.928C6.6798 17.32 7.0998 17.984 7.2098 18.704C7.2998 19.292 7.7658 19.762 8.3538 19.86C8.8878 19.952 9.4378 20 9.9998 20C10.5618 20 11.1118 19.952 11.6458 19.86C12.2318 19.76 12.6978 19.29 12.7878 18.702C12.8998 17.984 13.3198 17.32 13.9998 16.928C14.6778 16.536 15.4578 16.504 16.1358 16.764C16.6998 16.982 17.3438 16.802 17.7278 16.334C18.4118 15.5 18.9618 14.556 19.3478 13.53C19.5678 12.944 19.3578 12.298 18.8798 11.892C18.3418 11.438 17.9998 10.76 17.9998 10ZM9.9998 14C7.7898 14 5.9998 12.208 5.9998 10C5.9998 7.792 7.7898 6 9.9998 6C12.2098 6 13.9998 7.792 13.9998 10C13.9998 12.208 12.2098 14 9.9998 14Z" fill="#50D7D0"/>
</svg>
