<?xml version="1.0" standalone="no"?>
<!DOCTYPE svg PUBLIC "-//W3C//DTD SVG 20010904//EN"
 "http://www.w3.org/TR/2001/REC-SVG-20010904/DTD/svg10.dtd">
<svg version="1.0" xmlns="http://www.w3.org/2000/svg"
 width="816.000000pt" height="816.000000pt" viewBox="0 0 816.000000 816.000000"
 preserveAspectRatio="xMidYMid meet">
<metadata>
Created by potrace 1.14, written by Peter Selinger 2001-2017
</metadata>
<g transform="translate(0.000000,816.000000) scale(0.100000,-0.100000)"
fill="#000000" stroke="none">
<path d="M4064 7679 c-8 -8 -14 -18 -14 -22 0 -3 -13 -28 -28 -54 -16 -26 -52
-93 -82 -148 -29 -55 -62 -113 -71 -130 -10 -16 -26 -46 -36 -65 -9 -19 -36
-68 -60 -108 -24 -41 -43 -77 -43 -81 0 -4 -13 -28 -29 -53 -16 -25 -27 -49
-24 -52 4 -3 1 -6 -5 -6 -7 0 -12 -4 -12 -9 0 -5 -20 -44 -43 -87 -24 -44 -66
-119 -92 -169 -27 -49 -53 -93 -59 -97 -6 -4 -8 -8 -4 -8 4 0 -6 -22 -22 -50
-16 -27 -47 -84 -70 -127 -22 -43 -45 -85 -50 -93 -5 -8 -31 -55 -59 -105 -27
-49 -67 -124 -90 -165 -23 -41 -53 -97 -67 -125 -14 -27 -38 -72 -55 -100 -16
-27 -35 -61 -42 -75 -6 -14 -14 -27 -17 -30 -5 -5 -15 -23 -83 -150 -22 -41
-43 -77 -46 -80 -3 -3 -20 -32 -37 -65 -60 -114 -69 -130 -76 -133 -5 -2 -8
-7 -8 -11 0 -4 -40 -80 -90 -169 -49 -88 -90 -165 -90 -171 0 -5 -4 -11 -8
-13 -5 -1 -27 -37 -49 -78 -51 -94 -102 -187 -155 -277 -11 -21 -33 -60 -48
-88 -15 -27 -60 -108 -100 -180 -41 -71 -85 -152 -100 -180 -25 -49 -26 -50
-73 -50 -26 -1 -47 3 -47 8 0 4 -5 5 -12 1 -14 -9 -472 -11 -515 -3 -18 4 -33
4 -33 0 0 -5 -437 -6 -450 -1 -3 1 -9 1 -15 0 -24 -6 -433 -5 -462 1 -18 4
-33 4 -33 0 0 -3 -90 -5 -200 -5 -110 1 -200 0 -200 -3 0 -10 164 -305 192
-345 11 -16 16 -28 12 -28 -4 0 -1 -8 7 -17 8 -10 25 -38 39 -63 42 -80 45
-85 50 -90 3 -3 21 -34 39 -70 19 -36 38 -70 43 -76 5 -7 27 -47 50 -90 23
-44 49 -92 59 -109 58 -99 139 -247 139 -255 0 -6 5 -10 10 -10 6 0 10 -5 10
-11 0 -6 15 -37 34 -68 18 -31 48 -83 65 -116 18 -33 36 -67 42 -75 28 -44
119 -213 119 -221 0 -5 5 -9 10 -9 6 0 10 -5 10 -11 0 -6 16 -38 35 -70 19
-33 35 -64 35 -68 0 -5 -39 -77 -86 -162 -47 -85 -100 -179 -117 -209 -115
-208 -159 -287 -167 -300 -5 -8 -23 -42 -41 -75 -18 -33 -43 -77 -55 -97 -13
-21 -24 -40 -24 -42 0 -3 -15 -31 -34 -63 -18 -32 -46 -80 -61 -108 -15 -27
-38 -69 -51 -92 -13 -24 -36 -64 -50 -90 -14 -27 -29 -52 -34 -58 -4 -5 -24
-41 -44 -80 -20 -38 -41 -77 -47 -85 -19 -30 -119 -211 -135 -245 -9 -19 -20
-35 -25 -35 -5 0 -9 -9 -9 -19 0 -11 -5 -23 -10 -26 -6 -3 -10 -10 -10 -16 0
-5 385 -9 1008 -9 l1008 0 19 38 c10 20 18 40 17 45 -1 4 2 7 6 7 5 0 14 12
21 28 7 15 20 38 29 52 9 14 17 27 17 30 1 3 16 32 35 65 19 33 33 62 32 64
-2 2 0 7 5 10 5 3 47 74 93 156 46 83 98 177 117 210 19 33 40 72 46 87 6 16
15 28 19 28 4 0 8 4 8 10 0 5 17 39 38 76 49 88 72 128 108 194 17 30 74 132
126 225 52 94 112 202 133 240 21 39 51 92 67 118 15 26 28 50 28 53 0 3 9 17
20 31 11 14 17 29 15 34 -3 4 420 8 939 8 520 0 950 2 955 5 5 4 12 3 15 -2 2
-4 26 -6 52 -3 46 6 49 8 81 66 19 33 39 71 46 85 6 14 14 27 18 30 4 3 22 34
40 69 56 106 62 116 68 121 3 3 7 11 9 18 1 7 13 30 26 50 12 20 45 78 71 127
27 50 53 93 59 97 6 4 7 8 2 8 -5 0 -3 8 5 18 8 9 19 26 25 37 6 11 23 43 39
70 15 28 40 73 55 100 15 28 55 99 89 158 33 60 61 112 61 117 0 4 7 13 15 20
8 7 15 21 15 31 0 11 4 19 9 19 5 0 19 21 31 48 12 26 25 49 29 52 3 3 17 28
31 55 13 28 27 52 30 55 4 3 16 25 29 50 12 25 26 52 31 60 17 25 82 142 111
198 l28 53 -50 86 c-27 47 -49 87 -49 89 0 1 -22 41 -50 89 -27 48 -50 88 -50
90 0 2 -13 26 -28 52 -16 26 -44 77 -64 113 -20 36 -72 130 -117 209 -45 79
-81 147 -81 151 0 4 -7 13 -15 20 -9 7 -14 15 -11 17 2 3 -7 21 -20 40 -13 20
-24 42 -24 49 0 8 -4 14 -9 14 -5 0 -11 8 -15 18 -3 9 -18 40 -34 67 -15 28
-41 73 -56 100 -16 28 -33 56 -38 63 -6 6 -7 12 -2 12 5 0 0 7 -10 15 -11 8
-17 15 -13 15 4 0 -4 18 -18 40 -14 22 -25 42 -25 45 0 2 -18 34 -40 70 -22
36 -40 68 -40 70 0 9 -103 190 -118 208 -8 9 -11 17 -6 17 5 0 4 4 -3 8 -6 4
-13 14 -15 22 -3 13 116 15 987 17 545 0 1000 2 1011 2 12 1 24 9 28 19 3 9
18 40 34 67 76 133 93 164 119 215 15 30 30 57 33 60 5 4 129 224 200 355 45
83 81 147 120 215 20 36 117 209 215 385 98 176 187 336 198 355 11 19 31 55
44 78 14 24 22 47 18 50 -4 4 -909 7 -2011 7 -1814 0 -2007 -2 -2020 -16z"/>
</g>
</svg>
